<?xml version="1.0" encoding="UTF-8" standalone="no"?>
<!DOCTYPE svg PUBLIC "-//W3C//DTD SVG 1.1//EN"
 "http://www.w3.org/Graphics/SVG/1.1/DTD/svg11.dtd">
<!-- Generated by graphviz version 2.43.0 (0)
 -->
<!-- Title: arquitectura Pages: 1 -->
<svg width="1120pt" height="630pt"
 viewBox="0.00 0.00 1120.00 630.25" xmlns="http://www.w3.org/2000/svg" xmlns:xlink="http://www.w3.org/1999/xlink">
<g id="graph0" class="graph" transform="scale(1 1) rotate(0) translate(4 626.25)">
<title>arquitectura</title>
<polygon fill="white" stroke="transparent" points="-4,4 -4,-626.25 1116,-626.25 1116,4 -4,4"/>
<text text-anchor="middle" x="556" y="-605.45" font-family="Helvetica,sans-Serif" font-size="16.00">SWDataExtractor — Arquitectura</text>
<g id="clust1" class="cluster">
<title>cluster_ui</title>
<polygon fill="#eef4fb" stroke="black" points="189,-508.25 189,-588.25 646,-588.25 646,-508.25 189,-508.25"/>
<text text-anchor="middle" x="417.5" y="-571.45" font-family="Helvetica,sans-Serif" font-size="16.00">Presentación</text>
</g>
<g id="clust2" class="cluster">
<title>cluster_core</title>
<polygon fill="#eefbf0" stroke="black" points="8,-288.12 8,-489.25 832,-489.25 832,-288.12 8,-288.12"/>
<text text-anchor="middle" x="420" y="-472.45" font-family="Helvetica,sans-Serif" font-size="16.00">Core (servicios y contratos)</text>
</g>
<g id="clust3" class="cluster">
<title>cluster_ext</title>
<polygon fill="#fbeeee" stroke="black" points="91,-152 91,-262 548,-262 548,-152 91,-152"/>
<text text-anchor="middle" x="319.5" y="-245.2" font-family="Helvetica,sans-Serif" font-size="16.00">Adaptadores de extracción</text>
</g>
<g id="clust4" class="cluster">
<title>cluster_data</title>
<polygon fill="#f3eefb" stroke="black" points="840,-281 840,-375.25 1104,-375.25 1104,-281 840,-281"/>
<text text-anchor="middle" x="972" y="-358.45" font-family="Helvetica,sans-Serif" font-size="16.00">Datos</text>
</g>
<!-- UI -->
<g id="node1" class="node">
<title>UI</title>
<path fill="white" stroke="black" d="M434.5,-554.25C434.5,-554.25 209.5,-554.25 209.5,-554.25 203.5,-554.25 197.5,-548.25 197.5,-542.25 197.5,-542.25 197.5,-528.25 197.5,-528.25 197.5,-522.25 203.5,-516.25 209.5,-516.25 209.5,-516.25 434.5,-516.25 434.5,-516.25 440.5,-516.25 446.5,-522.25 446.5,-528.25 446.5,-528.25 446.5,-542.25 446.5,-542.25 446.5,-548.25 440.5,-554.25 434.5,-554.25"/>
<text text-anchor="middle" x="322" y="-539.05" font-family="Helvetica,sans-Serif" font-size="14.00">UI WPF</text>
<text text-anchor="middle" x="322" y="-524.05" font-family="Helvetica,sans-Serif" font-size="14.00">(grilla, detalle, cola, export Excel)</text>
</g>
<!-- Orq -->
<g id="node3" class="node">
<title>Orq</title>
<path fill="white" stroke="black" d="M634,-447.75C634,-447.75 436,-447.75 436,-447.75 430,-447.75 424,-441.75 424,-435.75 424,-435.75 424,-421.75 424,-421.75 424,-415.75 430,-409.75 436,-409.75 436,-409.75 634,-409.75 634,-409.75 640,-409.75 646,-415.75 646,-421.75 646,-421.75 646,-435.75 646,-435.75 646,-441.75 640,-447.75 634,-447.75"/>
<text text-anchor="middle" x="535" y="-432.55" font-family="Helvetica,sans-Serif" font-size="14.00">OrquestadorExtraccion</text>
<text text-anchor="middle" x="535" y="-417.55" font-family="Helvetica,sans-Serif" font-size="14.00">(modo Rápido/Profundo/Auto)</text>
</g>
<!-- UI&#45;&gt;Orq -->
<g id="edge1" class="edge">
<title>UI&#45;&gt;Orq</title>
<path fill="none" stroke="black" d="M360.03,-516.22C377.17,-508.06 397.64,-498.24 416,-489.25 440.51,-477.26 467.74,-463.66 489.95,-452.5"/>
<polygon fill="black" stroke="black" points="491.79,-455.5 499.15,-447.88 488.64,-449.24 491.79,-455.5"/>
</g>
<!-- Bom -->
<g id="node5" class="node">
<title>Bom</title>
<path fill="white" stroke="black" d="M394.5,-455.25C394.5,-455.25 249.5,-455.25 249.5,-455.25 243.5,-455.25 237.5,-449.25 237.5,-443.25 237.5,-443.25 237.5,-414.25 237.5,-414.25 237.5,-408.25 243.5,-402.25 249.5,-402.25 249.5,-402.25 394.5,-402.25 394.5,-402.25 400.5,-402.25 406.5,-408.25 406.5,-414.25 406.5,-414.25 406.5,-443.25 406.5,-443.25 406.5,-449.25 400.5,-455.25 394.5,-455.25"/>
<text text-anchor="middle" x="322" y="-440.05" font-family="Helvetica,sans-Serif" font-size="14.00">ServicioBom</text>
<text text-anchor="middle" x="322" y="-425.05" font-family="Helvetica,sans-Serif" font-size="14.00">(indentado, aplanado,</text>
<text text-anchor="middle" x="322" y="-410.05" font-family="Helvetica,sans-Serif" font-size="14.00">where&#45;used, diff)</text>
</g>
<!-- UI&#45;&gt;Bom -->
<g id="edge2" class="edge">
<title>UI&#45;&gt;Bom</title>
<path fill="none" stroke="black" d="M322,-516.05C322,-502.2 322,-482.69 322,-465.73"/>
<polygon fill="black" stroke="black" points="325.5,-465.57 322,-455.57 318.5,-465.57 325.5,-465.57"/>
</g>
<!-- Prop -->
<g id="node6" class="node">
<title>Prop</title>
<path fill="white" stroke="black" d="M208,-455.25C208,-455.25 28,-455.25 28,-455.25 22,-455.25 16,-449.25 16,-443.25 16,-443.25 16,-414.25 16,-414.25 16,-408.25 22,-402.25 28,-402.25 28,-402.25 208,-402.25 208,-402.25 214,-402.25 220,-408.25 220,-414.25 220,-414.25 220,-443.25 220,-443.25 220,-449.25 214,-455.25 208,-455.25"/>
<text text-anchor="middle" x="118" y="-440.05" font-family="Helvetica,sans-Serif" font-size="14.00">ServicioPropiedades</text>
<text text-anchor="middle" x="118" y="-425.05" font-family="Helvetica,sans-Serif" font-size="14.00">(lectura, lotes de escritura,</text>
<text text-anchor="middle" x="118" y="-410.05" font-family="Helvetica,sans-Serif" font-size="14.00">historial)</text>
</g>
<!-- UI&#45;&gt;Prop -->
<g id="edge3" class="edge">
<title>UI&#45;&gt;Prop</title>
<path fill="none" stroke="black" d="M283.82,-516.21C266.94,-508.13 246.9,-498.37 229,-489.25 210.92,-480.03 191.36,-469.68 173.76,-460.22"/>
<polygon fill="black" stroke="black" points="175.23,-457.03 164.76,-455.37 171.9,-463.2 175.23,-457.03"/>
</g>
<!-- CLI -->
<g id="node2" class="node">
<title>CLI</title>
<path fill="white" stroke="black" d="M625.5,-554.25C625.5,-554.25 476.5,-554.25 476.5,-554.25 470.5,-554.25 464.5,-548.25 464.5,-542.25 464.5,-542.25 464.5,-528.25 464.5,-528.25 464.5,-522.25 470.5,-516.25 476.5,-516.25 476.5,-516.25 625.5,-516.25 625.5,-516.25 631.5,-516.25 637.5,-522.25 637.5,-528.25 637.5,-528.25 637.5,-542.25 637.5,-542.25 637.5,-548.25 631.5,-554.25 625.5,-554.25"/>
<text text-anchor="middle" x="551" y="-539.05" font-family="Helvetica,sans-Serif" font-size="14.00">Batch CLI</text>
<text text-anchor="middle" x="551" y="-524.05" font-family="Helvetica,sans-Serif" font-size="14.00">(escaneo programado)</text>
</g>
<!-- CLI&#45;&gt;Orq -->
<g id="edge5" class="edge">
<title>CLI&#45;&gt;Orq</title>
<path fill="none" stroke="black" d="M548.21,-516.05C545.76,-500.04 542.15,-476.47 539.33,-458.01"/>
<polygon fill="black" stroke="black" points="542.78,-457.45 537.81,-448.09 535.86,-458.51 542.78,-457.45"/>
</g>
<!-- Esc -->
<g id="node4" class="node">
<title>Esc</title>
<path fill="white" stroke="black" d="M812,-447.75C812,-447.75 676,-447.75 676,-447.75 670,-447.75 664,-441.75 664,-435.75 664,-435.75 664,-421.75 664,-421.75 664,-415.75 670,-409.75 676,-409.75 676,-409.75 812,-409.75 812,-409.75 818,-409.75 824,-415.75 824,-421.75 824,-421.75 824,-435.75 824,-435.75 824,-441.75 818,-447.75 812,-447.75"/>
<text text-anchor="middle" x="744" y="-432.55" font-family="Helvetica,sans-Serif" font-size="14.00">EscaneadorCarpetas</text>
<text text-anchor="middle" x="744" y="-417.55" font-family="Helvetica,sans-Serif" font-size="14.00">(hash, incremental)</text>
</g>
<!-- CLI&#45;&gt;Esc -->
<g id="edge4" class="edge">
<title>CLI&#45;&gt;Esc</title>
<path fill="none" stroke="black" d="M597.67,-516.17C615.91,-508.57 636.77,-499.18 655,-489.25 674.32,-478.73 694.8,-465.21 711.24,-453.73"/>
<polygon fill="black" stroke="black" points="713.29,-456.56 719.44,-447.93 709.25,-450.84 713.29,-456.56"/>
</g>
<!-- IFaz -->
<g id="node7" class="node">
<title>IFaz</title>
<polygon fill="#fdf6d8" stroke="black" points="313.5,-334.12 154.5,-334.12 154.5,-330.12 150.5,-330.12 150.5,-326.12 154.5,-326.12 154.5,-304.12 150.5,-304.12 150.5,-300.12 154.5,-300.12 154.5,-296.12 313.5,-296.12 313.5,-334.12"/>
<polyline fill="none" stroke="black" points="154.5,-330.12 158.5,-330.12 158.5,-326.12 154.5,-326.12 "/>
<polyline fill="none" stroke="black" points="154.5,-304.12 158.5,-304.12 158.5,-300.12 154.5,-300.12 "/>
<text text-anchor="middle" x="234" y="-318.93" font-family="Helvetica,sans-Serif" font-size="14.00">IExtractorCad /</text>
<text text-anchor="middle" x="234" y="-303.93" font-family="Helvetica,sans-Serif" font-size="14.00">IEscritorPropiedades</text>
</g>
<!-- Orq&#45;&gt;IFaz -->
<g id="edge7" class="edge">
<title>Orq&#45;&gt;IFaz</title>
<path fill="none" stroke="black" d="M486.3,-409.69C433.3,-390.03 348.58,-358.62 292.13,-337.68"/>
<polygon fill="black" stroke="black" points="293.22,-334.35 282.63,-334.16 290.78,-340.92 293.22,-334.35"/>
</g>
<!-- BD -->
<g id="node10" class="node">
<title>BD</title>
<path fill="white" stroke="black" d="M1096,-336.6C1096,-339.24 1040.42,-341.38 972,-341.38 903.58,-341.38 848,-339.24 848,-336.6 848,-336.6 848,-293.65 848,-293.65 848,-291.01 903.58,-288.87 972,-288.87 1040.42,-288.87 1096,-291.01 1096,-293.65 1096,-293.65 1096,-336.6 1096,-336.6"/>
<path fill="none" stroke="black" d="M1096,-336.6C1096,-333.97 1040.42,-331.83 972,-331.83 903.58,-331.83 848,-333.97 848,-336.6"/>
<text text-anchor="middle" x="972" y="-318.93" font-family="Helvetica,sans-Serif" font-size="14.00">SQLite (EF Core)</text>
<text text-anchor="middle" x="972" y="-303.93" font-family="Helvetica,sans-Serif" font-size="14.00">12 tablas · portable a SQL Server</text>
</g>
<!-- Orq&#45;&gt;BD -->
<g id="edge14" class="edge">
<title>Orq&#45;&gt;BD</title>
<path fill="none" stroke="black" d="M616.52,-409.72C629.37,-407.09 642.53,-404.5 655,-402.25 735.04,-387.79 757.81,-397.66 836,-375.25 862.11,-367.77 889.8,-356.41 913.33,-345.65"/>
<polygon fill="black" stroke="black" points="914.87,-348.79 922.46,-341.4 911.92,-342.44 914.87,-348.79"/>
</g>
<!-- Esc&#45;&gt;BD -->
<g id="edge6" class="edge">
<title>Esc&#45;&gt;BD</title>
<path fill="none" stroke="black" d="M780.89,-409.69C816.04,-392.48 869.6,-366.26 911.09,-345.95"/>
<polygon fill="black" stroke="black" points="912.84,-348.99 920.28,-341.44 909.76,-342.7 912.84,-348.99"/>
</g>
<!-- Bom&#45;&gt;BD -->
<g id="edge15" class="edge">
<title>Bom&#45;&gt;BD</title>
<path fill="none" stroke="black" d="M406.74,-403.75C409.52,-403.21 412.28,-402.71 415,-402.25 507.46,-386.77 744.87,-397.27 836,-375.25 863.17,-368.68 891.76,-357.05 915.68,-345.83"/>
<polygon fill="black" stroke="black" points="917.43,-348.87 924.94,-341.4 914.41,-342.56 917.43,-348.87"/>
</g>
<!-- Prop&#45;&gt;IFaz -->
<g id="edge8" class="edge">
<title>Prop&#45;&gt;IFaz</title>
<path fill="none" stroke="black" d="M144.61,-402.14C163.46,-384.01 188.63,-359.78 207.46,-341.66"/>
<polygon fill="black" stroke="black" points="210.33,-343.76 215.11,-334.31 205.47,-338.72 210.33,-343.76"/>
</g>
<!-- Prop&#45;&gt;BD -->
<g id="edge16" class="edge">
<title>Prop&#45;&gt;BD</title>
<path fill="none" stroke="black" d="M220.09,-403.56C223.09,-403.09 226.06,-402.65 229,-402.25 295.9,-393.15 770.22,-390.46 836,-375.25 863.46,-368.9 892.3,-357.17 916.32,-345.82"/>
<polygon fill="black" stroke="black" points="918.14,-348.83 925.62,-341.34 915.09,-342.53 918.14,-348.83"/>
</g>
<!-- DM -->
<g id="node8" class="node">
<title>DM</title>
<path fill="white" stroke="black" d="M289.5,-228C289.5,-228 110.5,-228 110.5,-228 104.5,-228 98.5,-222 98.5,-216 98.5,-216 98.5,-172 98.5,-172 98.5,-166 104.5,-160 110.5,-160 110.5,-160 289.5,-160 289.5,-160 295.5,-160 301.5,-166 301.5,-172 301.5,-172 301.5,-216 301.5,-216 301.5,-222 295.5,-228 289.5,-228"/>
<text text-anchor="middle" x="200" y="-212.8" font-family="Helvetica,sans-Serif" font-size="14.00">DocManager</text>
<text text-anchor="middle" x="200" y="-197.8" font-family="Helvetica,sans-Serif" font-size="14.00">(rápido, sin abrir SW)</text>
<text text-anchor="middle" x="200" y="-182.8" font-family="Helvetica,sans-Serif" font-size="14.00">propiedades · estructura ·</text>
<text text-anchor="middle" x="200" y="-167.8" font-family="Helvetica,sans-Serif" font-size="14.00">físicas · preview · escritura</text>
</g>
<!-- IFaz&#45;&gt;DM -->
<g id="edge9" class="edge">
<title>IFaz&#45;&gt;DM</title>
<path fill="none" stroke="black" d="M228.84,-296.03C224.45,-280.66 217.98,-257.99 212.27,-238.01"/>
<polygon fill="black" stroke="black" points="215.57,-236.81 209.46,-228.16 208.84,-238.73 215.57,-236.81"/>
</g>
<!-- SWA -->
<g id="node9" class="node">
<title>SWA</title>
<path fill="white" stroke="black" d="M528,-228C528,-228 332,-228 332,-228 326,-228 320,-222 320,-216 320,-216 320,-172 320,-172 320,-166 326,-160 332,-160 332,-160 528,-160 528,-160 534,-160 540,-166 540,-172 540,-172 540,-216 540,-216 540,-222 534,-228 528,-228"/>
<text text-anchor="middle" x="430" y="-212.8" font-family="Helvetica,sans-Serif" font-size="14.00">SwApi (COM)</text>
<text text-anchor="middle" x="430" y="-197.8" font-family="Helvetica,sans-Serif" font-size="14.00">(profundo, requiere SW)</text>
<text text-anchor="middle" x="430" y="-182.8" font-family="Helvetica,sans-Serif" font-size="14.00">features · roscas · chaflanes</text>
<text text-anchor="middle" x="430" y="-167.8" font-family="Helvetica,sans-Serif" font-size="14.00">timeout · reinicio · ComScope</text>
</g>
<!-- IFaz&#45;&gt;SWA -->
<g id="edge10" class="edge">
<title>IFaz&#45;&gt;SWA</title>
<path fill="none" stroke="black" d="M263.77,-296.03C291.02,-279.47 332.23,-254.42 366.81,-233.41"/>
<polygon fill="black" stroke="black" points="368.72,-236.34 375.44,-228.16 365.08,-230.36 368.72,-236.34"/>
</g>
<!-- FS -->
<g id="node12" class="node">
<title>FS</title>
<polygon fill="#f0f0f0" stroke="black" points="330,-38 327,-42 306,-42 303,-38 170,-38 170,0 330,0 330,-38"/>
<text text-anchor="middle" x="250" y="-22.8" font-family="Helvetica,sans-Serif" font-size="14.00">Carpetas de diseños</text>
<text text-anchor="middle" x="250" y="-7.8" font-family="Helvetica,sans-Serif" font-size="14.00">(.SLDPRT / .SLDASM)</text>
</g>
<!-- DM&#45;&gt;FS -->
<g id="edge11" class="edge">
<title>DM&#45;&gt;FS</title>
<path fill="none" stroke="black" d="M209.64,-159.64C218.98,-127.32 233,-78.84 241.81,-48.33"/>
<polygon fill="black" stroke="black" points="245.28,-48.93 244.7,-38.35 238.56,-46.99 245.28,-48.93"/>
<text text-anchor="middle" x="260" y="-91.5" font-family="Helvetica,sans-Serif" font-size="10.00">lee/escribe</text>
</g>
<!-- SW -->
<g id="node11" class="node">
<title>SW</title>
<polygon fill="#f0f0f0" stroke="black" points="492.5,-113 333.5,-113 329.5,-109 329.5,-75 488.5,-75 492.5,-79 492.5,-113"/>
<polyline fill="none" stroke="black" points="488.5,-109 329.5,-109 "/>
<polyline fill="none" stroke="black" points="488.5,-109 488.5,-75 "/>
<polyline fill="none" stroke="black" points="488.5,-109 492.5,-113 "/>
<text text-anchor="middle" x="411" y="-97.8" font-family="Helvetica,sans-Serif" font-size="14.00">SolidWorks</text>
<text text-anchor="middle" x="411" y="-82.8" font-family="Helvetica,sans-Serif" font-size="14.00">(instalado + licencia)</text>
</g>
<!-- SWA&#45;&gt;SW -->
<g id="edge12" class="edge">
<title>SWA&#45;&gt;SW</title>
<path fill="none" stroke="black" d="M423.57,-159.82C421.24,-147.83 418.64,-134.43 416.42,-122.93"/>
<polygon fill="black" stroke="black" points="419.83,-122.16 414.49,-113.01 412.96,-123.49 419.83,-122.16"/>
<text text-anchor="middle" x="431" y="-134" font-family="Helvetica,sans-Serif" font-size="10.00">COM</text>
</g>
<!-- SW&#45;&gt;FS -->
<g id="edge13" class="edge">
<title>SW&#45;&gt;FS</title>
<path fill="none" stroke="black" d="M371.2,-74.96C349.43,-65.08 322.27,-52.77 299.18,-42.3"/>
<polygon fill="black" stroke="black" points="300.45,-39.03 289.9,-38.09 297.56,-45.41 300.45,-39.03"/>
</g>
</g>
</svg>
