<?xml version="1.0" encoding="UTF-8" standalone="no"?>
<!DOCTYPE svg PUBLIC "-//W3C//DTD SVG 1.1//EN"
 "http://www.w3.org/Graphics/SVG/1.1/DTD/svg11.dtd">
<!-- Generated by graphviz version 2.43.0 (0)
 -->
<!-- Title: esquema_bd Pages: 1 -->
<svg width="820pt" height="685pt"
 viewBox="0.00 0.00 820.00 684.50" xmlns="http://www.w3.org/2000/svg" xmlns:xlink="http://www.w3.org/1999/xlink">
<g id="graph0" class="graph" transform="scale(1 1) rotate(0) translate(4 680.5)">
<title>esquema_bd</title>
<polygon fill="white" stroke="transparent" points="-4,4 -4,-680.5 816,-680.5 816,4 -4,4"/>
<text text-anchor="middle" x="406" y="-659.7" font-family="Helvetica,sans-Serif" font-size="16.00">SWDataExtractor — Esquema BD</text>
<!-- archivos -->
<g id="node1" class="node">
<title>archivos</title>
<polygon fill="#eef4fb" stroke="transparent" points="599,-265.5 599,-369.5 812,-369.5 812,-265.5 599,-265.5"/>
<polygon fill="#2b6cb0" stroke="transparent" points="600.5,-351.5 600.5,-368.5 811.5,-368.5 811.5,-351.5 600.5,-351.5"/>
<text text-anchor="start" x="681.5" y="-358.5" font-family="Helvetica,sans-Serif" font-weight="bold" font-size="10.00" fill="white">archivos</text>
<text text-anchor="start" x="603.5" y="-340.5" font-family="Helvetica,sans-Serif" font-size="10.00">id PK · ruta UQ · nombre · tipo</text>
<text text-anchor="start" x="603.5" y="-323.5" font-family="Helvetica,sans-Serif" font-size="10.00">hash_sha256 · tamano · fecha_mod_disco</text>
<text text-anchor="start" x="603.5" y="-306.5" font-family="Helvetica,sans-Serif" font-size="10.00">version_sw · autor · ruta_preview</text>
<text text-anchor="start" x="603.5" y="-289.5" font-family="Helvetica,sans-Serif" font-size="10.00">fecha/estado extr_rapida y extr_profunda</text>
<text text-anchor="start" x="603.5" y="-272.5" font-family="Helvetica,sans-Serif" font-size="10.00">mensaje_error · origen · datos_extra_json</text>
<polygon fill="none" stroke="black" points="599,-265.5 599,-369.5 812,-369.5 812,-265.5 599,-265.5"/>
</g>
<!-- configuraciones -->
<g id="node2" class="node">
<title>configuraciones</title>
<polygon fill="#eefbf0" stroke="transparent" points="360,-369 360,-422 530,-422 530,-369 360,-369"/>
<polygon fill="#2f855a" stroke="transparent" points="361,-403.5 361,-420.5 529,-420.5 529,-403.5 361,-403.5"/>
<text text-anchor="start" x="400" y="-410.5" font-family="Helvetica,sans-Serif" font-weight="bold" font-size="10.00" fill="white">configuraciones</text>
<text text-anchor="start" x="364" y="-392.5" font-family="Helvetica,sans-Serif" font-size="10.00">id PK · archivo_id FK</text>
<text text-anchor="start" x="364" y="-375.5" font-family="Helvetica,sans-Serif" font-size="10.00">nombre · es_activa · es_derivada</text>
<polygon fill="none" stroke="black" points="360,-369 360,-422 530,-422 530,-369 360,-369"/>
</g>
<!-- configuraciones&#45;&gt;archivos -->
<g id="edge3" class="edge">
<title>configuraciones&#45;&gt;archivos</title>
<path fill="none" stroke="black" d="M530.28,-370.07C549.02,-364.41 569.2,-358.32 588.95,-352.37"/>
<polygon fill="black" stroke="black" points="590.04,-355.69 598.6,-349.45 588.02,-348.99 590.04,-355.69"/>
<text text-anchor="middle" x="573" y="-361.3" font-family="Helvetica,sans-Serif" font-size="9.00">N:1</text>
</g>
<!-- propiedades -->
<g id="node3" class="node">
<title>propiedades</title>
<polygon fill="#eefbf0" stroke="transparent" points="15.5,-472 15.5,-525 233.5,-525 233.5,-472 15.5,-472"/>
<polygon fill="#2f855a" stroke="transparent" points="16.5,-506.5 16.5,-523.5 232.5,-523.5 232.5,-506.5 16.5,-506.5"/>
<text text-anchor="start" x="88" y="-513.5" font-family="Helvetica,sans-Serif" font-weight="bold" font-size="10.00" fill="white">propiedades</text>
<text text-anchor="start" x="19.5" y="-495.5" font-family="Helvetica,sans-Serif" font-size="10.00">id PK · archivo_id FK · configuracion_id FK?</text>
<text text-anchor="start" x="19.5" y="-478.5" font-family="Helvetica,sans-Serif" font-size="10.00">nombre · valor · valor_resuelto · tipo</text>
<polygon fill="none" stroke="black" points="15.5,-472 15.5,-525 233.5,-525 233.5,-472 15.5,-472"/>
</g>
<!-- propiedades&#45;&gt;archivos -->
<g id="edge4" class="edge">
<title>propiedades&#45;&gt;archivos</title>
<path fill="none" stroke="black" d="M233.93,-502.46C321.01,-502.25 445.15,-494.2 547,-457.5 590.15,-441.95 628.81,-408.05 657.03,-377.51"/>
<polygon fill="black" stroke="black" points="659.87,-379.59 663.98,-369.83 654.68,-374.9 659.87,-379.59"/>
<text text-anchor="middle" x="445" y="-500.3" font-family="Helvetica,sans-Serif" font-size="9.00">N:1</text>
</g>
<!-- propiedades&#45;&gt;configuraciones -->
<g id="edge5" class="edge">
<title>propiedades&#45;&gt;configuraciones</title>
<path fill="none" stroke="black" stroke-dasharray="5,2" d="M218.37,-471.94C228.72,-468.83 239.1,-465.64 249,-462.5 285.49,-450.92 325.52,-437.32 359.77,-425.41"/>
<polygon fill="black" stroke="black" points="360.98,-428.7 369.27,-422.1 358.67,-422.09 360.98,-428.7"/>
<text text-anchor="middle" x="296" y="-458.3" font-family="Helvetica,sans-Serif" font-size="9.00">N:1?</text>
</g>
<!-- fisicas -->
<g id="node4" class="node">
<title>fisicas</title>
<polygon fill="#eefbf0" stroke="transparent" points="13.5,-400 13.5,-453 235.5,-453 235.5,-400 13.5,-400"/>
<polygon fill="#2f855a" stroke="transparent" points="14.5,-434.5 14.5,-451.5 234.5,-451.5 234.5,-434.5 14.5,-434.5"/>
<text text-anchor="start" x="67.5" y="-441.5" font-family="Helvetica,sans-Serif" font-weight="bold" font-size="10.00" fill="white">propiedades_fisicas</text>
<text text-anchor="start" x="17.5" y="-423.5" font-family="Helvetica,sans-Serif" font-size="10.00">archivo_id FK · configuracion_id FK</text>
<text text-anchor="start" x="17.5" y="-406.5" font-family="Helvetica,sans-Serif" font-size="10.00">material · densidad · masa · volumen · area</text>
<polygon fill="none" stroke="black" points="13.5,-400 13.5,-453 235.5,-453 235.5,-400 13.5,-400"/>
</g>
<!-- fisicas&#45;&gt;archivos -->
<g id="edge6" class="edge">
<title>fisicas&#45;&gt;archivos</title>
<path fill="none" stroke="black" d="M235.68,-447.66C322.66,-459.72 445.79,-466.31 547,-431.5 581.43,-419.66 614.8,-397.56 641.9,-375.95"/>
<polygon fill="black" stroke="black" points="644.19,-378.6 649.73,-369.57 639.77,-373.17 644.19,-378.6"/>
</g>
<!-- fisicas&#45;&gt;configuraciones -->
<g id="edge7" class="edge">
<title>fisicas&#45;&gt;configuraciones</title>
<path fill="none" stroke="black" d="M235.53,-412.84C246.16,-411.65 256.78,-410.52 267,-409.5 293.79,-406.83 322.9,-404.36 349.64,-402.25"/>
<polygon fill="black" stroke="black" points="350.06,-405.73 359.76,-401.46 349.51,-398.75 350.06,-405.73"/>
</g>
<!-- componentes -->
<g id="node5" class="node">
<title>componentes</title>
<polygon fill="#fbeeee" stroke="transparent" points="0,-294 0,-381 249,-381 249,-294 0,-294"/>
<polygon fill="#c53030" stroke="transparent" points="1.5,-362.5 1.5,-379.5 248.5,-379.5 248.5,-362.5 1.5,-362.5"/>
<text text-anchor="start" x="87" y="-369.5" font-family="Helvetica,sans-Serif" font-weight="bold" font-size="10.00" fill="white">componentes</text>
<text text-anchor="start" x="4.5" y="-351.5" font-family="Helvetica,sans-Serif" font-size="10.00">ensamble_archivo_id FK · ensamble_config_id FK</text>
<text text-anchor="start" x="4.5" y="-334.5" font-family="Helvetica,sans-Serif" font-size="10.00">componente_archivo_id FK? · ruta_referenciada</text>
<text text-anchor="start" x="4.5" y="-317.5" font-family="Helvetica,sans-Serif" font-size="10.00">configuracion_usada · cantidad · suprimido</text>
<text text-anchor="start" x="4.5" y="-300.5" font-family="Helvetica,sans-Serif" font-size="10.00">es_toolbox · es_envelope · datos_extra_json</text>
<polygon fill="none" stroke="black" points="0,-294 0,-381 249,-381 249,-294 0,-294"/>
</g>
<!-- componentes&#45;&gt;archivos -->
<g id="edge8" class="edge">
<title>componentes&#45;&gt;archivos</title>
<path fill="none" stroke="black" d="M249.15,-318.13C279.74,-314.13 312.5,-310.52 343,-308.5 433.47,-302.5 456.37,-305.91 547,-308.5 560.44,-308.88 574.51,-309.45 588.49,-310.12"/>
<polygon fill="black" stroke="black" points="588.47,-313.62 598.63,-310.62 588.82,-306.63 588.47,-313.62"/>
<text text-anchor="middle" x="445" y="-311.3" font-family="Helvetica,sans-Serif" font-size="9.00">padre</text>
</g>
<!-- componentes&#45;&gt;archivos -->
<g id="edge9" class="edge">
<title>componentes&#45;&gt;archivos</title>
<path fill="none" stroke="black" stroke-dasharray="5,2" d="M249.24,-333.68C340.85,-330.79 468.72,-326.62 581,-322.5 583.53,-322.41 586.1,-322.31 588.68,-322.22"/>
<polygon fill="black" stroke="black" points="588.87,-325.71 598.73,-321.83 588.61,-318.72 588.87,-325.71"/>
<text text-anchor="middle" x="445" y="-333.3" font-family="Helvetica,sans-Serif" font-size="9.00">hijo?</text>
</g>
<!-- componentes&#45;&gt;configuraciones -->
<g id="edge10" class="edge">
<title>componentes&#45;&gt;configuraciones</title>
<path fill="none" stroke="black" d="M249.1,-360.01C282.55,-366.1 318.21,-372.59 349.76,-378.34"/>
<polygon fill="black" stroke="black" points="349.39,-381.83 359.85,-380.18 350.64,-374.94 349.39,-381.83"/>
<text text-anchor="middle" x="296" y="-375.3" font-family="Helvetica,sans-Serif" font-size="9.00">config padre</text>
</g>
<!-- features -->
<g id="node6" class="node">
<title>features</title>
<polygon fill="#fdf6d8" stroke="transparent" points="349,-150.5 349,-220.5 541,-220.5 541,-150.5 349,-150.5"/>
<polygon fill="#b7791f" stroke="transparent" points="350,-202.5 350,-219.5 540,-219.5 540,-202.5 350,-202.5"/>
<text text-anchor="start" x="421" y="-209.5" font-family="Helvetica,sans-Serif" font-weight="bold" font-size="10.00" fill="white">features</text>
<text text-anchor="start" x="353" y="-191.5" font-family="Helvetica,sans-Serif" font-size="10.00">id PK · archivo_id FK · nombre</text>
<text text-anchor="start" x="353" y="-174.5" font-family="Helvetica,sans-Serif" font-size="10.00">tipo_sw · categoria · parametros_json</text>
<text text-anchor="start" x="353" y="-157.5" font-family="Helvetica,sans-Serif" font-size="10.00">suprimido · orden</text>
<polygon fill="none" stroke="black" points="349,-150.5 349,-220.5 541,-220.5 541,-150.5 349,-150.5"/>
</g>
<!-- features&#45;&gt;archivos -->
<g id="edge11" class="edge">
<title>features&#45;&gt;archivos</title>
<path fill="none" stroke="black" d="M541.29,-216.77C554.85,-222.17 568.44,-228.12 581,-234.5 595.5,-241.86 610.33,-250.62 624.46,-259.65"/>
<polygon fill="black" stroke="black" points="622.86,-262.78 633.15,-265.29 626.67,-256.91 622.86,-262.78"/>
</g>
<!-- roscas -->
<g id="node7" class="node">
<title>roscas</title>
<polygon fill="#fdf6d8" stroke="transparent" points="30,-166 30,-253 219,-253 219,-166 30,-166"/>
<polygon fill="#b7791f" stroke="transparent" points="31.5,-234.5 31.5,-251.5 218.5,-251.5 218.5,-234.5 31.5,-234.5"/>
<text text-anchor="start" x="106.5" y="-241.5" font-family="Helvetica,sans-Serif" font-weight="bold" font-size="10.00" fill="white">roscas</text>
<text text-anchor="start" x="34.5" y="-223.5" font-family="Helvetica,sans-Serif" font-size="10.00">id PK · archivo_id FK · feature_id FK</text>
<text text-anchor="start" x="34.5" y="-206.5" font-family="Helvetica,sans-Serif" font-size="10.00">designacion · estandar · tipo_barreno</text>
<text text-anchor="start" x="34.5" y="-189.5" font-family="Helvetica,sans-Serif" font-size="10.00">diametro · paso/hpp · profundidades</text>
<text text-anchor="start" x="34.5" y="-172.5" font-family="Helvetica,sans-Serif" font-size="10.00">pasante · cantidad</text>
<polygon fill="none" stroke="black" points="30,-166 30,-253 219,-253 219,-166 30,-166"/>
</g>
<!-- roscas&#45;&gt;archivos -->
<g id="edge12" class="edge">
<title>roscas&#45;&gt;archivos</title>
<path fill="none" stroke="black" d="M219.17,-226.97C319.96,-245.77 480.37,-275.69 588.93,-295.94"/>
<polygon fill="black" stroke="black" points="588.47,-299.42 598.94,-297.81 589.76,-292.54 588.47,-299.42"/>
</g>
<!-- roscas&#45;&gt;features -->
<g id="edge13" class="edge">
<title>roscas&#45;&gt;features</title>
<path fill="none" stroke="black" d="M219.34,-202.43C256.82,-199.6 300.15,-196.34 338.69,-193.44"/>
<polygon fill="black" stroke="black" points="339.2,-196.91 348.9,-192.67 338.67,-189.93 339.2,-196.91"/>
</g>
<!-- diccionario -->
<g id="node8" class="node">
<title>diccionario</title>
<polygon fill="#f3eefb" stroke="transparent" points="27,-543 27,-596 222,-596 222,-543 27,-543"/>
<polygon fill="#6b46c1" stroke="transparent" points="28.5,-577.5 28.5,-594.5 221.5,-594.5 221.5,-577.5 28.5,-577.5"/>
<text text-anchor="start" x="54.5" y="-584.5" font-family="Helvetica,sans-Serif" font-weight="bold" font-size="10.00" fill="white">diccionario_propiedades</text>
<text text-anchor="start" x="31.5" y="-566.5" font-family="Helvetica,sans-Serif" font-size="10.00">nombre UQ · tipo · valores_permitidos</text>
<text text-anchor="start" x="31.5" y="-549.5" font-family="Helvetica,sans-Serif" font-size="10.00">obligatoria · nivel · activa</text>
<polygon fill="none" stroke="black" points="27,-543 27,-596 222,-596 222,-543 27,-543"/>
</g>
<!-- historial -->
<g id="node9" class="node">
<title>historial</title>
<polygon fill="#f3eefb" stroke="transparent" points="343,-62.5 343,-132.5 547,-132.5 547,-62.5 343,-62.5"/>
<polygon fill="#6b46c1" stroke="transparent" points="344,-114.5 344,-131.5 546,-131.5 546,-114.5 344,-114.5"/>
<text text-anchor="start" x="382.5" y="-121.5" font-family="Helvetica,sans-Serif" font-weight="bold" font-size="10.00" fill="white">historial_propiedades</text>
<text text-anchor="start" x="347" y="-103.5" font-family="Helvetica,sans-Serif" font-size="10.00">lote_id · archivo_id FK · configuracion</text>
<text text-anchor="start" x="347" y="-86.5" font-family="Helvetica,sans-Serif" font-size="10.00">propiedad · valor_anterior · valor_nuevo</text>
<text text-anchor="start" x="347" y="-69.5" font-family="Helvetica,sans-Serif" font-size="10.00">usuario · fecha · resultado</text>
<polygon fill="none" stroke="black" points="343,-62.5 343,-132.5 547,-132.5 547,-62.5 343,-62.5"/>
</g>
<!-- historial&#45;&gt;archivos -->
<g id="edge14" class="edge">
<title>historial&#45;&gt;archivos</title>
<path fill="none" stroke="black" d="M533.31,-132.57C538.06,-135.39 542.66,-138.36 547,-141.5 591.34,-173.54 632.24,-219.99 661.24,-257.12"/>
<polygon fill="black" stroke="black" points="658.73,-259.6 667.61,-265.38 664.27,-255.32 658.73,-259.6"/>
</g>
<!-- trabajos -->
<g id="node10" class="node">
<title>trabajos</title>
<polygon fill="#f0f0f0" stroke="transparent" points="348.5,-527 348.5,-580 541.5,-580 541.5,-527 348.5,-527"/>
<polygon fill="#4a5568" stroke="transparent" points="350,-561.5 350,-578.5 541,-578.5 541,-561.5 350,-561.5"/>
<text text-anchor="start" x="389.5" y="-568.5" font-family="Helvetica,sans-Serif" font-weight="bold" font-size="10.00" fill="white">trabajos_extraccion</text>
<text text-anchor="start" x="353" y="-550.5" font-family="Helvetica,sans-Serif" font-size="10.00">archivo_id FK · tipo · estado · intentos</text>
<text text-anchor="start" x="353" y="-533.5" font-family="Helvetica,sans-Serif" font-size="10.00">fechas · duracion_ms · mensaje</text>
<polygon fill="none" stroke="black" points="348.5,-527 348.5,-580 541.5,-580 541.5,-527 348.5,-527"/>
</g>
<!-- trabajos&#45;&gt;archivos -->
<g id="edge15" class="edge">
<title>trabajos&#45;&gt;archivos</title>
<path fill="none" stroke="black" d="M541.66,-533.85C555.68,-528.38 569.3,-521.4 581,-512.5 626.16,-478.13 659.14,-422.12 679.61,-378.92"/>
<polygon fill="black" stroke="black" points="682.88,-380.18 683.91,-369.64 676.53,-377.24 682.88,-380.18"/>
</g>
<!-- etiquetas -->
<g id="node11" class="node">
<title>etiquetas</title>
<polygon fill="#e6fffa" stroke="transparent" points="640,0 640,-53 771,-53 771,0 640,0"/>
<polygon fill="#2c7a7b" stroke="transparent" points="641.5,-34.5 641.5,-51.5 770.5,-51.5 770.5,-34.5 641.5,-34.5"/>
<text text-anchor="start" x="679" y="-41.5" font-family="Helvetica,sans-Serif" font-weight="bold" font-size="10.00" fill="white">etiquetas</text>
<text text-anchor="start" x="644.5" y="-23.5" font-family="Helvetica,sans-Serif" font-size="10.00">id PK · nombre UQ · color</text>
<text text-anchor="start" x="644.5" y="-6.5" font-family="Helvetica,sans-Serif" font-size="10.00">descripcion · activa</text>
<polygon fill="none" stroke="black" points="640,0 640,-53 771,-53 771,0 640,0"/>
</g>
<!-- archivo_etiquetas -->
<g id="node12" class="node">
<title>archivo_etiquetas</title>
<polygon fill="#e6fffa" stroke="transparent" points="368,-8.5 368,-44.5 522,-44.5 522,-8.5 368,-8.5"/>
<polygon fill="#2c7a7b" stroke="transparent" points="369,-26.5 369,-43.5 521,-43.5 521,-26.5 369,-26.5"/>
<text text-anchor="start" x="394.5" y="-33.5" font-family="Helvetica,sans-Serif" font-weight="bold" font-size="10.00" fill="white">archivo_etiquetas</text>
<text text-anchor="start" x="372" y="-15.5" font-family="Helvetica,sans-Serif" font-size="10.00">archivo_id FK · etiqueta_id FK</text>
<polygon fill="none" stroke="black" points="368,-8.5 368,-44.5 522,-44.5 522,-8.5 368,-8.5"/>
</g>
<!-- archivo_etiquetas&#45;&gt;archivos -->
<g id="edge1" class="edge">
<title>archivo_etiquetas&#45;&gt;archivos</title>
<path fill="none" stroke="black" d="M522.1,-39.87C531,-43.4 539.54,-47.86 547,-53.5 615.21,-105.04 659.72,-195.44 683.49,-255.89"/>
<polygon fill="black" stroke="black" points="680.26,-257.25 687.13,-265.33 686.8,-254.74 680.26,-257.25"/>
</g>
<!-- archivo_etiquetas&#45;&gt;etiquetas -->
<g id="edge2" class="edge">
<title>archivo_etiquetas&#45;&gt;etiquetas</title>
<path fill="none" stroke="black" d="M522.16,-26.5C556.04,-26.5 595.8,-26.5 629.54,-26.5"/>
<polygon fill="black" stroke="black" points="629.8,-30 639.8,-26.5 629.8,-23 629.8,-30"/>
</g>
<!-- ajustes_app -->
<g id="node13" class="node">
<title>ajustes_app</title>
<polygon fill="#f0f0f0" stroke="transparent" points="49,-614.5 49,-650.5 200,-650.5 200,-614.5 49,-614.5"/>
<polygon fill="#4a5568" stroke="transparent" points="50.5,-632.5 50.5,-649.5 199.5,-649.5 199.5,-632.5 50.5,-632.5"/>
<text text-anchor="start" x="91" y="-639.5" font-family="Helvetica,sans-Serif" font-weight="bold" font-size="10.00" fill="white">ajustes_app</text>
<text text-anchor="start" x="53.5" y="-621.5" font-family="Helvetica,sans-Serif" font-size="10.00">clave UQ · valor · descripcion</text>
<polygon fill="none" stroke="black" points="49,-614.5 49,-650.5 200,-650.5 200,-614.5 49,-614.5"/>
</g>
</g>
</svg>
